<?xml version="1.0" encoding="utf-8"?>
<svg viewBox="842.9263 115.435 20.0188 19.5071" xmlns="http://www.w3.org/2000/svg">
  <path d="M 852.941 115.435 C 845.243 115.436 840.432 123.769 844.281 130.436 C 845.504 132.553 847.459 134.149 849.779 134.923 C 850.279 135.01 850.466 134.71 850.466 134.448 C 850.466 134.21 850.454 133.423 850.454 132.585 C 847.941 133.048 847.291 131.973 847.091 131.41 C 846.869 130.863 846.517 130.378 846.066 129.998 C 845.716 129.81 845.216 129.348 846.054 129.335 C 846.703 129.406 847.276 129.788 847.591 130.36 C 848.166 131.394 849.472 131.763 850.504 131.185 C 850.547 130.677 850.773 130.202 851.141 129.848 C 848.916 129.598 846.591 128.735 846.591 124.91 C 846.577 123.916 846.944 122.955 847.616 122.223 C 847.31 121.359 847.346 120.411 847.716 119.573 C 847.716 119.573 848.554 119.31 850.466 120.598 C 852.102 120.148 853.83 120.148 855.466 120.598 C 857.379 119.298 858.216 119.573 858.216 119.573 C 858.586 120.411 858.622 121.359 858.316 122.223 C 858.99 122.954 859.357 123.916 859.341 124.91 C 859.341 128.748 857.004 129.598 854.779 129.848 C 855.261 130.337 855.508 131.012 855.454 131.698 C 855.454 133.035 855.441 134.11 855.441 134.448 C 855.441 134.71 855.629 135.023 856.129 134.923 C 863.428 132.465 865.33 123.027 859.551 117.934 C 857.725 116.325 855.375 115.436 852.941 115.435 Z" style="fill: rgb(255, 255, 255);" transform="matrix(1, 0, 0, 1, 0, -1.4210854715202004e-14)"/>
</svg>