<?xml version="1.0" encoding="utf-8"?>
<svg viewBox="817.36 140.0749 19.88 20.0003" xmlns="http://www.w3.org/2000/svg">
  <path d="M 835.77 140.075 L 818.83 140.075 C 818.029 140.064 817.371 140.705 817.36 141.505 L 817.36 158.645 C 817.371 159.446 818.029 160.087 818.83 160.075 L 835.77 160.075 C 836.571 160.087 837.229 159.446 837.24 158.645 L 837.24 141.505 C 837.229 140.705 836.571 140.064 835.77 140.075 Z M 823.39 156.815 L 820.39 156.815 L 820.39 147.815 L 823.39 147.815 L 823.39 156.815 Z M 821.89 146.555 C 820.689 146.555 819.939 145.255 820.539 144.215 C 820.818 143.733 821.333 143.435 821.89 143.435 C 823.091 143.299 823.989 144.514 823.507 145.622 C 823.231 146.255 822.575 146.633 821.89 146.555 Z M 834.21 156.815 L 831.21 156.815 L 831.21 151.985 C 831.21 150.775 830.78 149.985 829.69 149.985 C 828.999 149.99 828.385 150.425 828.15 151.075 C 828.072 151.31 828.038 151.558 828.05 151.805 L 828.05 156.805 L 825.05 156.805 C 825.05 156.805 825.05 148.625 825.05 147.805 L 828.05 147.805 L 828.05 149.075 C 828.606 148.112 829.649 147.534 830.76 147.575 C 832.76 147.575 834.21 148.865 834.21 151.635 L 834.21 156.815 Z" style="fill: rgb(255, 255, 255);"/>
</svg>