<?xml version="1.0" encoding="utf-8"?>
<svg viewBox="458.159 109.468 1008.962 812.206" xmlns="http://www.w3.org/2000/svg">
  <g transform="matrix(1, 0, 0, 1, 5.684341886080802e-14, 0)">
    <rect x="1025.449" y="160.735" width="80.802" height="30.092" fill="#ffc107" opacity="0.3"/>
    <rect x="1159.747" width="80.802" height="30.092" fill="#ffc107" opacity="0.3" y="109.468"/>
    <rect x="1165.32" y="202.529" width="80.802" height="30.092" fill="#ffc107" opacity="0.3"/>
    <rect x="906.755" y="237.079" width="80.802" height="30.092" fill="#ffc107" opacity="0.3"/>
    <rect x="881.121" y="360.789" width="80.802" height="30.092" fill="#ffc107" opacity="0.3"/>
    <rect x="1003.159" y="358.002" width="80.802" height="30.092" fill="#ffc107" opacity="0.3"/>
    <polyline points="1159.747 124.324 1106.251 175.084 1165.319 217.575" fill="none" stroke="#3f3d56" stroke-miterlimit="10"/>
    <line x1="1025.449" y1="175.084" x2="947.155" y2="237.079" fill="none" stroke="#3f3d56" stroke-miterlimit="10"/>
    <polyline points="921.522 360.765 947.155 267.17 1043.56 358.002" fill="none" stroke="#3f3d56" stroke-miterlimit="10"/>
    <rect x="480.449" y="191.735" width="80.802" height="30.092" fill="#ffc107" opacity="0.3"/>
    <rect x="614.747" y="140.468" width="80.802" height="30.092" fill="#ffc107" opacity="0.3"/>
    <rect x="620.319" y="233.529" width="80.802" height="30.092" fill="#ffc107" opacity="0.3"/>
    <rect x="458.159" y="389.002" width="80.802" height="30.092" fill="#ffc107" opacity="0.3"/>
    <polyline points="614.747 155.324 561.251 206.084 620.319 248.575" fill="none" stroke="#3f3d56" stroke-miterlimit="10"/>
    <line x1="701.121" y1="248.575" x2="792.755" y2="248.575" fill="none" stroke="#3f3d56" stroke-miterlimit="10"/>
    <rect x="751.621" y="233.174" width="95" height="30" fill="#ffc107"/>
    <line x1="846.744" y1="248.174" x2="906.755" y2="248.174" fill="none" stroke="#3f3d56" stroke-miterlimit="10"/>
    <line x1="751.166" y1="248.174" x2="695.549" y2="155.324" fill="none" stroke="#3f3d56" stroke-miterlimit="10"/>
    <ellipse cx="1027.121" cy="823.674" rx="440" ry="98" fill="#f2f2f2"/>
    <polygon points="1217.725 506.678 1177.889 714.462 1174.93 709.858 1212.085 509.04 1217.725 506.678" opacity="0.1"/>
    <polygon points="1295.685 793.9 1284.654 797.456 1281.973 798.323 1278.434 790.361 1217.725 513.428 1224.037 512.013 1237.298 509.04 1295.685 793.9" fill="#47465a"/>
    <polygon points="1284.654 797.456 1281.973 798.323 1278.434 790.361 1217.725 513.428 1224.037 512.013 1284.654 797.456" opacity="0.1"/>
    <polygon points="769.757 501.079 760.026 779.745 748.874 782.222 748.083 782.399 744.986 776.649 751.179 503.732 757.137 502.883 769.757 501.079" fill="#47465a"/>
    <polygon points="757.137 502.883 748.874 782.222 748.083 782.399 744.986 776.649 751.179 503.732 757.137 502.883" opacity="0.1"/>
    <polygon points="827.702 878.385 816.166 880.375 814.874 880.596 811.336 873.077 755.16 509.04 756.779 508.549 765.334 505.944 827.702 878.385" fill="#47465a"/>
    <polygon points="816.166 880.375 814.874 880.596 811.336 873.077 755.16 509.04 756.779 508.549 816.166 880.375" opacity="0.1"/>
    <path d="M 1071.867 478.52 L 1114.818 533.402 C 1117.812 537.227 1122.582 539.216 1127.407 538.651 L 1303.725 518.001 C 1310.742 517.179 1316.032 511.233 1316.032 504.168 L 1316.032 463.48 L 1071.867 478.52 Z" fill="#7a799c"/>
    <path d="M 1216.509 487.366 L 1228.451 487.366 C 1228.451 487.366 1228.451 487.366 1228.451 487.366 L 1228.451 504.603 C 1228.451 507.054 1226.465 509.04 1224.014 509.04 L 1220.946 509.04 C 1218.495 509.04 1216.509 507.054 1216.509 504.603 L 1216.509 487.366 C 1216.509 487.366 1216.509 487.366 1216.509 487.366 Z" fill="#47465a"/>
    <path d="M 804.506 541.259 L 1328.965 480.169 C 1334.862 479.482 1337.805 472.669 1334.261 467.905 C 1333.545 466.942 1332.614 466.16 1331.543 465.62 L 1237.726 418.438 C 1219.248 409.145 1198.5 405.323 1177.923 407.421 L 711.982 454.931 C 705.153 455.645 701.659 463.483 705.692 469.039 C 705.945 469.388 706.222 469.717 706.523 470.026 L 760.782 525.694 C 772.162 537.37 788.308 543.117 804.506 541.259 Z" fill="#47465a"/>
    <path d="M 1386.665 471.889 L 1381.055 468.788 C 1381.055 468.788 1374.998 473.246 1370.065 492.028 C 1365.131 510.81 1379.285 492.232 1379.285 492.232 L 1385.478 479.404 L 1386.665 471.889 Z" fill="#47465a"/>
    <path d="M 1326.648 643.95 C 1326.648 643.95 1320.898 670.932 1318.244 678.452 C 1316.944 682.132 1310.663 685.498 1303.7 688.073 C 1297.527 690.372 1291.137 692.04 1284.627 693.049 C 1277.108 693.934 1180.68 678.894 1133.793 668.721 C 1102.206 661.869 1098.124 654.009 1098.823 649.612 C 1099.048 648.303 1099.675 647.097 1100.618 646.162 C 1100.618 646.162 1147.063 614.757 1163.429 599.718 C 1179.795 584.678 1212.085 596.621 1247.472 602.814 C 1282.858 609.007 1326.648 643.95 1326.648 643.95 Z" fill="#47465a"/>
    <path d="M 1381.055 468.788 C 1381.055 468.788 1402.729 482.943 1329.745 512.137 C 1329.745 512.137 1290.076 534.503 1295.24 626.64 C 1295.484 630.783 1296.746 634.802 1298.913 638.342 C 1306.443 650.727 1322.579 682.079 1295.685 685.972 L 1295.685 693.049 C 1295.685 693.049 1344.341 668.721 1349.649 647.931 C 1354.957 627.142 1372.65 511.694 1381.497 501.078 C 1390.344 490.463 1396.094 473.654 1381.055 468.788 Z" fill="#47465a"/>
    <path d="M 1303.7 688.073 C 1297.527 690.372 1291.137 692.04 1284.627 693.049 C 1277.108 693.934 1180.68 678.894 1133.793 668.721 C 1102.206 661.869 1098.124 654.009 1098.823 649.612 C 1119.585 656.712 1187.005 679.244 1211.201 681.106 C 1239.952 683.318 1294.88 689.466 1299.043 685.286 C 1300.644 683.676 1302.285 685.375 1303.7 688.073 Z" opacity="0.1"/>
    <path d="M 1051.078 872.192 L 1093.099 680.221 C 1093.099 680.221 1100.618 659.874 1117.869 660.759 L 1133.793 668.721 C 1133.793 668.721 1107.253 662.528 1101.503 682.875 C 1095.753 703.223 1059.04 872.192 1059.04 872.192 L 1051.078 872.192 Z" fill="#47465a"/>
    <polygon points="1151.929 784.611 1168.737 667.394 1176.257 667.394 1159.006 784.611 1151.929 784.611" fill="#47465a"/>
    <path d="M 1312.936 899.174 L 1297.012 716.05 C 1297.012 716.05 1297.012 700.568 1304.974 693.049 C 1312.936 685.529 1338.639 664.079 1338.639 664.079 C 1338.639 664.079 1345.226 662.528 1350.534 677.567 C 1355.842 692.607 1392.555 842.998 1392.555 842.998 L 1385.478 846.095 L 1339.918 672.702 L 1308.513 702.338 C 1308.513 702.338 1302.32 713.396 1305.417 723.57 C 1308.513 733.743 1320.013 899.174 1320.013 899.174 L 1312.936 899.174 Z" fill="#47465a"/>
    <polygon points="1263.838 688.626 1303.647 700.126 1312.494 691.722 1289.493 688.626 1263.838 688.626" fill="#47465a"/>
    <path d="M 847.678 373.243 L 854.133 470.067 L 995.235 456.355 L 989.621 361.705 C 989.304 356.365 984.651 352.335 979.32 352.783 L 856.378 363.124 C 851.203 363.559 847.332 368.061 847.678 373.243 Z" fill="#7a799c"/>
    <polygon points="1042.565 484.221 901.904 499.566 896.596 500.145 855.46 473.606 855.46 467.855 995.235 455.267 1042.565 484.221" fill="#7a799c"/>
    <polygon points="857.229 372.312 862.095 458.566 985.947 447.066 981.523 363.023 857.229 372.312" fill="#9493b6"/>
    <polygon points="869.614 470.067 888.634 484.221 1010.275 472.721 988.601 458.566 869.614 470.067" fill="#9493b6"/>
    <g transform="matrix(1, 0, 0, 1, 115.641953, -555.494324)">
      <g transform="matrix(0.999247, 0.038798, -0.038798, 0.999247, 1041.760376, 1011.250854)" style="transform-origin: -27.3479px 140.282px;">
        <path d="M -169.452 -17.04 C -161.708 -19.624 -153.512 -12.657 -152.329 -2.484 L -106.557 12.182 L -123.441 32.445 L -164.32 15.411 C -174.437 15.58 -181.631 1.951 -177.266 -9.119 C -175.713 -13.06 -172.889 -15.924 -169.453 -17.04 L -169.452 -17.04 Z" fill="#ffb6b6" style="stroke-width: 1.344; transform-origin: -142.381px 7.033px;"/>
        <g transform="matrix(1.249639, 0.182082, -0.262153, 1.799176, -677.292908, -493.632874)" style="transform-origin: 483.029px 484.443px;">
          <path d="M 638.522 455.53 L 649.557 452.576 C 650.68 459.662 649.119 466.467 645.128 471.882 C 638.427 481.144 598.922 518.065 598.922 518.065 L 523.455 498.656 L 529.221 482.876 L 587.283 490.451 L 631.415 452.337 L 638.522 455.53 Z" style="stroke-width: 1.244; transform-origin: 599.413px 485.137px; fill: rgb(255, 193, 7);"/>
        </g>
        <polygon points="-80.328 433.39 -99.004 422.57 -83.003 373.885 -55.444 389.852 -80.328 433.39" fill="#ffb6b6" style="stroke-width: 2.089; transform-origin: -83.546px 399.599px;"/>
        <polygon points="54.923 348.345 37.335 361.868 -32.009 305.302 -6.054 285.339 54.923 348.345" fill="#ffb6b6" style="stroke-width: 1.936; transform-origin: 9.436px 320.106px;"/>
        <path d="M 66.916 350.066 L 29.961 386.149 L 29.414 385.814 C 20.149 380.106 19.078 369.19 27.02 361.434 L 49.591 339.394 L 66.916 350.066 Z" fill="#2f2e41" style="stroke-width: 1.335; transform-origin: 39.728px 366.904px;"/>
        <path d="M 105.447 158.364 C 105.447 158.364 113.485 181.618 64.159 211.028 L 0.633 270.13 L -65.375 417.552 L -104.562 401.148 L -44.298 250.96 L -9.058 193.349 L -8.036 162.089 L 0.633 140.053 L 63.521 119.219 L 105.447 158.364 Z" fill="#2f2e41" style="stroke-width: 1.369;"/>
        <path d="M 14.884 351.223 L -4.474 335.77 L -19.519 322.635 L -84.498 241.069 C -92.109 229.502 -90.493 214.127 -80.645 204.42 L 0.71 124.361 L 14.504 110.484 L 45.371 110.484 L 30.897 164.208 L -19.317 221.469 L 38.733 324.808 L 14.884 351.223 Z" fill="#2f2e41" style="stroke-width: 1.727;"/>
        <circle cx="728.872" cy="379.36" r="23.034" transform="matrix(0.930204, -1.56484, 1.623489, 0.965069, -1266.05542, 689.601746)" fill="#ffb6b6"/>
        <path d="M 46.926 -94.437 C 46.492 -87.639 52.07 -62.567 52.07 -62.567 C 56.158 -70.428 50.728 -48.143 50.728 -48.143 C 57.325 -51.753 60.791 -56.771 64.715 -61.022 C 109.299 -109.323 62.138 -151.097 43.079 -146.708 C 43.512 -153.508 26.599 -150.815 26.599 -150.815 C 20.155 -162.286 6.034 -147.057 6.034 -147.057 L 8.757 -152.299 C -2.207 -149.111 -13.045 -110.368 -13.045 -110.368 C -9.327 -93.653 47.358 -101.237 46.926 -94.437 Z" fill="#2f2e41" style="stroke-width: 1.904; transform-box: fill-box; transform-origin: 50% 50%;"/>
        <path d="M -24.837 9.439 L -12.639 -15.923 L -1.181 -39.747 L 47.356 -43.41 C 47.356 -43.41 100.421 -7.697 102.458 51.175 C 104.496 110.045 106.714 167.885 106.714 167.885 C 106.714 167.885 11.553 123.686 -28.36 152.608 L -24.837 9.439 Z" style="stroke-width: 1.632; fill: rgb(255, 193, 7);"/>
        <path d="M 33.747 166.483 C 32.587 158.677 40.908 150.367 51.128 149.124 L 73.738 102.839 L 90.659 119.792 L 66.594 161.146 C 64.953 171.359 50.259 178.688 40.145 174.335 C 36.544 172.784 34.232 169.947 33.747 166.483 Z" fill="#ffb6b6" style="stroke-width: 1.545; transform-origin: 60.715px 139.858px;"/>
        <g transform="matrix(1.69663, 0, 0, 1.539689, 989.057495, -1123.602539)" style="opacity: 0.9;"/>
        <path d="M -78.689 450.299 L -125.306 428.061 L -125.18 427.432 C -123.019 416.766 -113.143 411.995 -103.123 416.774 L -74.649 430.356 L -78.689 450.299 Z" fill="#2f2e41" style="stroke-width: 1.335; transform-origin: -103.873px 430.589px;"/>
      </g>
      <path d="M 1097.148 1145.096 L 1127.937 1075.264 L 1100.137 1029.471 L 1096.546 971.021 L 1113.016 977.324 L 1113.166 977.399 C 1119.036 980.778 1123.768 986.606 1127.059 992.119 C 1130.025 997.088 1156.717 1031.393 1166.43 1059.091 C 1170.329 1070.209 1170.543 1080.37 1165.801 1087.36 C 1162.183 1092.692 1123.781 1158.009 1119.135 1162.623 L 1097.148 1145.096 Z" style="fill: rgb(255, 193, 7);"/>
    </g>
  </g>
</svg>